<svg width="136" height="120" viewBox="0 0 136 120" fill="none" xmlns="http://www.w3.org/2000/svg">
<g clip-path="url(#clip0_1_3)">
<path d="M66.5641 77.3784L57.0237 67.5591L28.5019 90.6634L16.2128 100.602H37.9029L59.7723 84.0906L69.0737 92.7348L81.8209 92.6949L66.5442 77.4182L66.5641 77.3784Z" fill="#913C28"/>
<path d="M81.8608 63.5756L72.3204 53.7363L68.2174 49.4939L74.4117 44.5145L104.129 20.5937H82.3588L64.8712 34.6753L54.3349 43.1602L54.1955 43.2597L48.6982 47.6814L34.517 59.0941V33.8388L20.8735 41.7859V70.0687V87.5761L34.517 76.6016L41.6674 70.8454L57.5217 58.0983L61.6844 62.3606L71.2249 72.1998L97.994 99.8254H98.3525H117.015L81.8608 63.5756Z" fill="#FA7835"/>
<path d="M114.565 4.73935H20.6146C11.5945 4.73935 4.28229 12.0516 4.28229 21.0717V99.3673C4.28229 108.387 11.5945 115.7 20.6146 115.7H114.565C123.585 115.7 130.898 108.387 130.898 99.3673V21.0717C130.898 12.0516 123.585 4.73935 114.565 4.73935Z" stroke="#FA7835" stroke-width="8.56451" stroke-miterlimit="10"/>
</g>
<defs>
<clipPath id="clip0_1_3">
<rect width="135.18" height="119.525" fill="white" transform="translate(0 0.457123)"/>
</clipPath>
</defs>
</svg>
