<svg width="961" height="143" viewBox="0 0 961 143" fill="none" xmlns="http://www.w3.org/2000/svg">
<path d="M72.5103 91.4085L63.0986 81.7217L34.9617 104.514L22.8385 114.319H44.2359L65.8101 98.0301L74.986 106.558L87.5611 106.518L72.4906 91.4478L72.5103 91.4085Z" fill="#913C28"/>
<path d="M87.6006 77.792L78.1889 68.0856L74.1413 63.9004L80.252 58.9882L109.568 35.3902H88.0918L70.8403 49.2818L60.4462 57.6521L60.3087 57.7504L54.8856 62.1124L40.8958 73.371V48.4566L27.4365 56.2964V84.1974V101.469L40.8958 90.6422L47.9497 84.9637L63.59 72.3886L67.6965 76.5934L77.1082 86.2999L103.516 113.553H103.87H122.28L87.6006 77.792Z" fill="#FA7835"/>
<path d="M36.501 22.5659H9.86523V127.135H36.501V137H0V12.7006H36.501V22.5659Z" fill="#FA7835"/>
<path d="M108.515 22.5659H135.151V127.135H108.515V137H145.016V12.7006H108.515V22.5659Z" fill="#FA7835"/>
<path d="M192.227 79.4914V19.8075H199.455V49.4163H200.154L226.965 19.8075H236.407L211.345 46.7352L236.407 79.4914H227.665L206.915 51.7477L199.455 60.1407V79.4914H192.227ZM245.762 79.4914V19.8075H281.782V26.2188H252.99V46.3855H279.917V52.7968H252.99V73.08H282.249V79.4914H245.762ZM294.809 79.4914V19.8075H302.036V73.08H329.78V79.4914H294.809ZM337.809 19.8075L355.528 70.0492H356.227L373.946 19.8075H381.523L359.608 79.4914H352.147L330.232 19.8075H337.809ZM398.047 19.8075V79.4914H390.819V19.8075H398.047ZM445.177 34.7284C444.828 31.7753 443.409 29.4828 440.923 27.8508C438.436 26.2188 435.385 25.4028 431.772 25.4028C429.13 25.4028 426.818 25.8303 424.836 26.6851C422.874 27.5399 421.339 28.7154 420.231 30.2113C419.143 31.7073 418.599 33.4073 418.599 35.3113C418.599 36.9044 418.978 38.2741 419.736 39.4204C420.513 40.5472 421.504 41.4895 422.708 42.2472C423.913 42.9855 425.176 43.5975 426.497 44.0832C427.818 44.5495 429.032 44.9283 430.14 45.2198L436.201 46.8517C437.756 47.2597 439.485 47.8232 441.389 48.542C443.312 49.2609 445.148 50.242 446.897 51.4854C448.665 52.7094 450.122 54.2831 451.268 56.2065C452.414 58.1299 452.988 60.4905 452.988 63.2881C452.988 66.5132 452.142 69.4275 450.452 72.0309C448.781 74.6343 446.333 76.7034 443.108 78.2383C439.903 79.7731 436.007 80.5405 431.422 80.5405C427.148 80.5405 423.447 79.8508 420.319 78.4714C417.21 77.092 414.762 75.1686 412.975 72.7012C411.207 70.2338 410.206 67.3681 409.973 64.1041H417.434C417.628 66.3578 418.386 68.2229 419.707 69.6995C421.047 71.1566 422.738 72.2446 424.778 72.9635C426.837 73.6629 429.052 74.0126 431.422 74.0126C434.181 74.0126 436.658 73.5657 438.853 72.672C441.049 71.7589 442.788 70.4961 444.07 68.8835C445.352 67.2515 445.993 65.3475 445.993 63.1716C445.993 61.1899 445.44 59.5773 444.332 58.3339C443.225 57.0905 441.768 56.0802 439.961 55.3031C438.154 54.5259 436.201 53.846 434.103 53.2631L426.759 51.1648C422.096 49.8243 418.405 47.9106 415.685 45.4238C412.965 42.9369 411.605 39.6827 411.605 35.661C411.605 32.3193 412.509 29.4051 414.315 26.9182C416.142 24.412 418.59 22.4691 421.659 21.0897C424.748 19.6909 428.197 18.9915 432.005 18.9915C435.852 18.9915 439.271 19.6812 442.263 21.0606C445.255 22.4206 447.625 24.2857 449.374 26.656C451.142 29.0262 452.074 31.717 452.172 34.7284H445.177ZM515.229 49.6494C515.229 55.9442 514.092 61.3842 511.819 65.9693C509.546 70.5543 506.428 74.0903 502.464 76.5771C498.501 79.064 493.974 80.3074 488.884 80.3074C483.794 80.3074 479.267 79.064 475.303 76.5771C471.34 74.0903 468.222 70.5543 465.949 65.9693C463.676 61.3842 462.539 55.9442 462.539 49.6494C462.539 43.3546 463.676 37.9147 465.949 33.3296C468.222 28.7445 471.34 25.2085 475.303 22.7217C479.267 20.2349 483.794 18.9915 488.884 18.9915C493.974 18.9915 498.501 20.2349 502.464 22.7217C506.428 25.2085 509.546 28.7445 511.819 33.3296C514.092 37.9147 515.229 43.3546 515.229 49.6494ZM508.235 49.6494C508.235 44.4815 507.37 40.1198 505.641 36.5644C503.931 33.009 501.609 30.3182 498.676 28.4919C495.762 26.6657 492.498 25.7525 488.884 25.7525C485.27 25.7525 481.997 26.6657 479.063 28.4919C476.149 30.3182 473.827 33.009 472.098 36.5644C470.388 40.1198 469.533 44.4815 469.533 49.6494C469.533 54.8174 470.388 59.179 472.098 62.7344C473.827 66.2898 476.149 68.9806 479.063 70.8069C481.997 72.6332 485.27 73.5463 488.884 73.5463C492.498 73.5463 495.762 72.6332 498.676 70.8069C501.609 68.9806 503.931 66.2898 505.641 62.7344C507.37 59.179 508.235 54.8174 508.235 49.6494ZM574.709 19.8075V79.4914H567.714L535.191 32.6302H534.609V79.4914H527.381V19.8075H534.375L567.015 66.7852H567.598V19.8075H574.709ZM612.252 19.8075H620.878L641.161 69.3498H641.86L662.144 19.8075H670.77V79.4914H664.009V34.1456H663.426L644.775 79.4914H638.247L619.596 34.1456H619.013V79.4914H612.252V19.8075ZM687.709 79.4914H680.132L702.047 19.8075H709.508L731.423 79.4914H723.846L706.01 29.2496H705.544L687.709 79.4914ZM690.507 56.1774H721.048V62.5887H690.507V56.1774ZM740.719 79.4914V19.8075H760.886C765.549 19.8075 769.376 20.604 772.368 22.1971C775.36 23.7708 777.575 25.9371 779.012 28.6959C780.45 31.4548 781.169 34.5924 781.169 38.109C781.169 41.6255 780.45 44.7438 779.012 47.4637C777.575 50.1837 775.37 52.3208 772.397 53.8751C769.425 55.4099 765.626 56.1774 761.002 56.1774H744.683V49.6494H760.769C763.955 49.6494 766.52 49.1831 768.463 48.2506C770.425 47.318 771.843 45.9969 772.718 44.2872C773.611 42.5581 774.058 40.4987 774.058 38.109C774.058 35.7193 773.611 33.6307 772.718 31.8433C771.824 30.0559 770.396 28.6765 768.434 27.7051C766.471 26.7142 763.878 26.2188 760.653 26.2188H747.947V79.4914H740.719ZM768.813 52.6803L783.5 79.4914H775.107L760.653 52.6803H768.813ZM841.239 38.4587H834.012C833.584 36.3799 832.836 34.5536 831.768 32.9799C830.719 31.4062 829.436 30.0851 827.921 29.0165C826.425 27.9285 824.764 27.1125 822.938 26.5685C821.111 26.0245 819.207 25.7525 817.226 25.7525C813.612 25.7525 810.338 26.6657 807.405 28.4919C804.49 30.3182 802.169 33.009 800.44 36.5644C798.73 40.1198 797.875 44.4815 797.875 49.6494C797.875 54.8174 798.73 59.179 800.44 62.7344C802.169 66.2898 804.49 68.9806 807.405 70.8069C810.338 72.6332 813.612 73.5463 817.226 73.5463C819.207 73.5463 821.111 73.2743 822.938 72.7303C824.764 72.1863 826.425 71.3801 827.921 70.3115C829.436 69.2235 830.719 67.8927 831.768 66.319C832.836 64.7258 833.584 62.8996 834.012 60.8402H841.239C840.695 63.8904 839.704 66.6201 838.267 69.0292C836.829 71.4383 835.041 73.488 832.904 75.1783C830.767 76.8491 828.368 78.1217 825.706 78.996C823.064 79.8702 820.237 80.3074 817.226 80.3074C812.135 80.3074 807.609 79.064 803.645 76.5771C799.682 74.0903 796.564 70.5543 794.29 65.9693C792.017 61.3842 790.881 55.9442 790.881 49.6494C790.881 43.3546 792.017 37.9147 794.29 33.3296C796.564 28.7445 799.682 25.2085 803.645 22.7217C807.609 20.2349 812.135 18.9915 817.226 18.9915C820.237 18.9915 823.064 19.4286 825.706 20.3029C828.368 21.1772 830.767 22.4594 832.904 24.1497C835.041 25.8205 836.829 27.8605 838.267 30.2696C839.704 32.6593 840.695 35.389 841.239 38.4587ZM903.276 49.6494C903.276 55.9442 902.14 61.3842 899.867 65.9693C897.593 70.5543 894.475 74.0903 890.512 76.5771C886.548 79.064 882.022 80.3074 876.931 80.3074C871.841 80.3074 867.314 79.064 863.351 76.5771C859.388 74.0903 856.269 70.5543 853.996 65.9693C851.723 61.3842 850.587 55.9442 850.587 49.6494C850.587 43.3546 851.723 37.9147 853.996 33.3296C856.269 28.7445 859.388 25.2085 863.351 22.7217C867.314 20.2349 871.841 18.9915 876.931 18.9915C882.022 18.9915 886.548 20.2349 890.512 22.7217C894.475 25.2085 897.593 28.7445 899.867 33.3296C902.14 37.9147 903.276 43.3546 903.276 49.6494ZM896.282 49.6494C896.282 44.4815 895.418 40.1198 893.688 36.5644C891.979 33.009 889.657 30.3182 886.723 28.4919C883.809 26.6657 880.545 25.7525 876.931 25.7525C873.318 25.7525 870.044 26.6657 867.11 28.4919C864.196 30.3182 861.874 33.009 860.145 36.5644C858.436 40.1198 857.581 44.4815 857.581 49.6494C857.581 54.8174 858.436 59.179 860.145 62.7344C861.874 66.2898 864.196 68.9806 867.11 70.8069C870.044 72.6332 873.318 73.5463 876.931 73.5463C880.545 73.5463 883.809 72.6332 886.723 70.8069C889.657 68.9806 891.979 66.2898 893.688 62.7344C895.418 59.179 896.282 54.8174 896.282 49.6494ZM948.068 34.7284C947.719 31.7753 946.3 29.4828 943.814 27.8508C941.327 26.2188 938.277 25.4028 934.663 25.4028C932.021 25.4028 929.709 25.8303 927.727 26.6851C925.765 27.5399 924.23 28.7154 923.122 30.2113C922.034 31.7073 921.49 33.4073 921.49 35.3113C921.49 36.9044 921.869 38.2741 922.627 39.4204C923.404 40.5472 924.395 41.4895 925.6 42.2472C926.804 42.9855 928.067 43.5975 929.388 44.0832C930.709 44.5495 931.923 44.9283 933.031 45.2198L939.093 46.8517C940.647 47.2597 942.376 47.8232 944.28 48.542C946.203 49.2609 948.039 50.242 949.788 51.4854C951.556 52.7094 953.013 54.2831 954.159 56.2065C955.305 58.1299 955.879 60.4905 955.879 63.2881C955.879 66.5132 955.033 69.4275 953.343 72.0309C951.672 74.6343 949.224 76.7034 945.999 78.2383C942.794 79.7731 938.898 80.5405 934.313 80.5405C930.039 80.5405 926.338 79.8508 923.21 78.4714C920.101 77.092 917.653 75.1686 915.866 72.7012C914.098 70.2338 913.097 67.3681 912.864 64.1041H920.325C920.519 66.3578 921.277 68.2229 922.598 69.6995C923.938 71.1566 925.629 72.2446 927.669 72.9635C929.728 73.6629 931.943 74.0126 934.313 74.0126C937.072 74.0126 939.549 73.5657 941.744 72.672C943.94 71.7589 945.679 70.4961 946.961 68.8835C948.243 67.2515 948.884 65.3475 948.884 63.1716C948.884 61.1899 948.331 59.5773 947.223 58.3339C946.116 57.0905 944.659 56.0802 942.852 55.3031C941.045 54.5259 939.093 53.846 936.994 53.2631L929.65 51.1648C924.988 49.8243 921.296 47.9106 918.576 45.4238C915.856 42.9369 914.496 39.6827 914.496 35.661C914.496 32.3193 915.4 29.4051 917.206 26.9182C919.033 24.412 921.481 22.4691 924.55 21.0897C927.639 19.6909 931.088 18.9915 934.896 18.9915C938.743 18.9915 942.162 19.6812 945.154 21.0606C948.146 22.4206 950.516 24.2857 952.265 26.656C954.033 29.0262 954.965 31.717 955.063 34.7284H948.068Z" fill="black"/>
<path d="M192.632 133V103.011H210.613V106.232H196.263V116.365H209.266V119.587H196.263V133H192.632ZM216.833 133V103.011H226.966C229.309 103.011 231.232 103.411 232.736 104.211C234.239 105.002 235.352 106.091 236.074 107.477C236.797 108.863 237.158 110.44 237.158 112.207C237.158 113.974 236.797 115.54 236.074 116.907C235.352 118.274 234.244 119.348 232.75 120.129C231.257 120.9 229.348 121.285 227.025 121.285H218.825V118.005H226.908C228.509 118.005 229.797 117.771 230.773 117.302C231.759 116.834 232.472 116.17 232.911 115.311C233.36 114.442 233.585 113.407 233.585 112.207C233.585 111.006 233.36 109.956 232.911 109.058C232.462 108.16 231.745 107.467 230.759 106.979C229.773 106.481 228.47 106.232 226.849 106.232H220.465V133H216.833ZM230.949 119.528L238.329 133H234.112L226.849 119.528H230.949ZM268.513 118.005C268.513 121.168 267.942 123.902 266.799 126.206C265.657 128.509 264.09 130.286 262.099 131.536C260.108 132.785 257.833 133.41 255.275 133.41C252.718 133.41 250.443 132.785 248.452 131.536C246.46 130.286 244.893 128.509 243.751 126.206C242.609 123.902 242.038 121.168 242.038 118.005C242.038 114.842 242.609 112.109 243.751 109.805C244.893 107.501 246.46 105.725 248.452 104.475C250.443 103.225 252.718 102.601 255.275 102.601C257.833 102.601 260.108 103.225 262.099 104.475C264.09 105.725 265.657 107.501 266.799 109.805C267.942 112.109 268.513 114.842 268.513 118.005ZM264.998 118.005C264.998 115.409 264.564 113.217 263.695 111.431C262.836 109.644 261.669 108.292 260.195 107.374C258.731 106.457 257.091 105.998 255.275 105.998C253.459 105.998 251.815 106.457 250.34 107.374C248.876 108.292 247.71 109.644 246.841 111.431C245.982 113.217 245.552 115.409 245.552 118.005C245.552 120.602 245.982 122.794 246.841 124.58C247.71 126.367 248.876 127.719 250.34 128.636C251.815 129.554 253.459 130.013 255.275 130.013C257.091 130.013 258.731 129.554 260.195 128.636C261.669 127.719 262.836 126.367 263.695 124.58C264.564 122.794 264.998 120.602 264.998 118.005ZM298.4 103.011V133H294.885L278.543 109.454H278.25V133H274.619V103.011H278.133L294.534 126.616H294.827V103.011H298.4ZM304.026 106.232V103.011H326.518V106.232H317.088V133H313.456V106.232H304.026ZM341.48 116.395V119.616H328.36V116.395H341.48ZM348.029 133V103.011H366.128V106.232H351.661V116.365H365.191V119.587H351.661V129.778H366.362V133H348.029ZM396.454 103.011V133H392.94L376.598 109.454H376.305V133H372.674V103.011H376.188L392.588 126.616H392.881V103.011H396.454ZM412.975 133H403.721V103.011H413.385C416.295 103.011 418.784 103.611 420.854 104.812C422.923 106.003 424.509 107.716 425.613 109.952C426.716 112.177 427.267 114.842 427.267 117.947C427.267 121.071 426.711 123.76 425.598 126.015C424.485 128.26 422.865 129.988 420.736 131.199C418.608 132.4 416.021 133 412.975 133ZM407.352 129.778H412.741C415.221 129.778 417.276 129.3 418.906 128.343C420.536 127.387 421.752 126.025 422.552 124.258C423.353 122.491 423.753 120.387 423.753 117.947C423.753 115.526 423.358 113.442 422.567 111.694C421.776 109.937 420.595 108.59 419.023 107.653C417.451 106.706 415.494 106.232 413.151 106.232H407.352V129.778ZM454.211 133H444.956V103.011H454.621C457.53 103.011 460.019 103.611 462.089 104.812C464.158 106.003 465.745 107.716 466.848 109.952C467.951 112.177 468.503 114.842 468.503 117.947C468.503 121.071 467.946 123.76 466.833 126.015C465.72 128.26 464.1 129.988 461.972 131.199C459.844 132.4 457.257 133 454.211 133ZM448.588 129.778H453.977C456.456 129.778 458.511 129.3 460.141 128.343C461.772 127.387 462.987 126.025 463.787 124.258C464.588 122.491 464.988 120.387 464.988 117.947C464.988 115.526 464.593 113.442 463.802 111.694C463.011 109.937 461.83 108.59 460.258 107.653C458.687 106.706 456.729 106.232 454.387 106.232H448.588V129.778ZM474.594 133V103.011H492.693V106.232H478.226V116.365H491.756V119.587H478.226V129.778H492.928V133H474.594ZM500.469 103.011L509.372 128.256H509.723L518.626 103.011H522.434L511.422 133H507.673L496.662 103.011H500.469ZM527.105 133V103.011H545.204V106.232H530.736V116.365H544.267V119.587H530.736V129.778H545.438V133H527.105ZM551.749 133V103.011H555.381V129.778H569.321V133H551.749ZM599.08 118.005C599.08 121.168 598.509 123.902 597.367 126.206C596.224 128.509 594.658 130.286 592.666 131.536C590.675 132.785 588.4 133.41 585.842 133.41C583.285 133.41 581.01 132.785 579.019 131.536C577.027 130.286 575.46 128.509 574.318 126.206C573.176 123.902 572.605 121.168 572.605 118.005C572.605 114.842 573.176 112.109 574.318 109.805C575.46 107.501 577.027 105.725 579.019 104.475C581.01 103.225 583.285 102.601 585.842 102.601C588.4 102.601 590.675 103.225 592.666 104.475C594.658 105.725 596.224 107.501 597.367 109.805C598.509 112.109 599.08 114.842 599.08 118.005ZM595.566 118.005C595.566 115.409 595.131 113.217 594.262 111.431C593.403 109.644 592.237 108.292 590.763 107.374C589.298 106.457 587.658 105.998 585.842 105.998C584.027 105.998 582.382 106.457 580.908 107.374C579.443 108.292 578.277 109.644 577.408 111.431C576.549 113.217 576.119 115.409 576.119 118.005C576.119 120.602 576.549 122.794 577.408 124.58C578.277 126.367 579.443 127.719 580.908 128.636C582.382 129.554 584.027 130.013 585.842 130.013C587.658 130.013 589.298 129.554 590.763 128.636C592.237 127.719 593.403 126.367 594.262 124.58C595.131 122.794 595.566 120.602 595.566 118.005ZM605.186 133V103.011H615.319C617.672 103.011 619.595 103.435 621.089 104.285C622.592 105.124 623.705 106.261 624.427 107.697C625.15 109.132 625.511 110.733 625.511 112.499C625.511 114.266 625.15 115.872 624.427 117.317C623.715 118.762 622.612 119.914 621.118 120.773C619.624 121.622 617.711 122.047 615.378 122.047H608.115V118.825H615.261C616.871 118.825 618.165 118.547 619.141 117.991C620.117 117.434 620.825 116.683 621.264 115.736C621.713 114.779 621.938 113.7 621.938 112.499C621.938 111.299 621.713 110.225 621.264 109.278C620.825 108.331 620.112 107.589 619.126 107.052C618.141 106.506 616.832 106.232 615.202 106.232H608.818V133H605.186ZM631.361 133V103.011H649.46V106.232H634.992V116.365H648.523V119.587H634.992V129.778H649.694V133H631.361ZM656.005 133V103.011H666.139C668.482 103.011 670.405 103.411 671.908 104.211C673.411 105.002 674.524 106.091 675.247 107.477C675.969 108.863 676.33 110.44 676.33 112.207C676.33 113.974 675.969 115.54 675.247 116.907C674.524 118.274 673.416 119.348 671.923 120.129C670.429 120.9 668.521 121.285 666.197 121.285H657.997V118.005H666.08C667.681 118.005 668.97 117.771 669.946 117.302C670.932 116.834 671.644 116.17 672.084 115.311C672.533 114.442 672.757 113.407 672.757 112.207C672.757 111.006 672.533 109.956 672.084 109.058C671.635 108.16 670.917 107.467 669.931 106.979C668.945 106.481 667.642 106.232 666.021 106.232H659.637V133H656.005ZM670.122 119.528L677.502 133H673.284L666.021 119.528H670.122Z" fill="black"/>
</svg>
