<svg width="846" height="131" viewBox="0 0 846 131" fill="none" xmlns="http://www.w3.org/2000/svg">
<path d="M72.5103 79.4085L63.0986 69.7217L34.9617 92.5141L22.8385 102.319H44.2359L65.8101 86.0301L74.986 94.5576L87.5611 94.5183L72.4906 79.4478L72.5103 79.4085Z" fill="#913C28"/>
<path d="M87.6006 65.792L78.1889 56.0856L74.1413 51.9004L80.252 46.9882L109.568 23.3902H88.0918L70.8403 37.2818L60.4462 45.6521L60.3087 45.7504L54.8856 50.1124L40.8958 61.371V36.4566L27.4365 44.2964V72.1974V89.4686L40.8958 78.6422L47.9497 72.9637L63.59 60.3886L67.6965 64.5934L77.1082 74.2999L103.516 101.553H103.87H122.28L87.6006 65.792Z" fill="#FA7835"/>
<path d="M36.501 10.5659H9.86523V115.135H36.501V125H0V0.700623H36.501V10.5659Z" fill="#FA7835"/>
<path d="M108.515 10.5659H135.151V115.135H108.515V125H145.016V0.700623H108.515V10.5659Z" fill="#FA7835"/>
<path d="M190.526 67.0558V16.7552H198.115V40.7757H198.73L219.827 16.7552H229.381L209.094 39.4003L229.455 67.0558H220.319L204.059 44.5827L198.115 51.4106V67.0558H190.526ZM236.455 67.0558V16.7552H267.991V23.2884H244.044V38.6144H266.346V45.123H244.044V60.5227H268.286V67.0558H236.455ZM278.129 67.0558V16.7552H285.718V60.5227H308.51V67.0558H278.129ZM316.634 16.7552L330.634 57.7227H331.198L345.198 16.7552H353.402L335.3 67.0558H326.532L308.431 16.7552H316.634ZM368.255 16.7552V67.0558H360.665V16.7552H368.255ZM406.742 29.969C406.48 27.6439 405.399 25.8427 403.5 24.5656C401.6 23.272 399.21 22.6253 396.328 22.6253C394.265 22.6253 392.48 22.9527 390.973 23.6077C389.467 24.2463 388.296 25.1305 387.461 26.2603C386.643 27.3737 386.233 28.6427 386.233 30.0672C386.233 31.2625 386.512 32.294 387.068 33.1619C387.641 34.0297 388.386 34.7583 389.303 35.3478C390.237 35.9209 391.235 36.4039 392.3 36.7969C393.364 37.1735 394.387 37.4846 395.37 37.7302L400.282 39.0073C401.887 39.4003 403.532 39.9325 405.219 40.6038C406.905 41.2751 408.469 42.1593 409.91 43.2564C411.351 44.3534 412.513 45.7125 413.398 47.3335C414.298 48.9545 414.748 50.8948 414.748 53.1544C414.748 56.0035 414.012 58.5332 412.538 60.7437C411.081 62.9542 408.96 64.698 406.177 65.9752C403.409 67.2523 400.061 67.8909 396.131 67.8909C392.365 67.8909 389.107 67.2933 386.356 66.098C383.605 64.9027 381.452 63.208 379.897 61.0139C378.341 58.8034 377.481 56.1836 377.318 53.1544H384.931C385.079 54.9719 385.668 56.4865 386.7 57.6982C387.748 58.8935 389.082 59.7858 390.703 60.3753C392.341 60.9484 394.134 61.2349 396.082 61.2349C398.227 61.2349 400.135 60.8993 401.805 60.2279C403.491 59.5402 404.818 58.5905 405.784 57.3789C406.75 56.1508 407.233 54.7181 407.233 53.0807C407.233 51.5907 406.807 50.3708 405.956 49.4212C405.121 48.4715 403.983 47.6855 402.542 47.0633C401.117 46.4411 399.504 45.8926 397.703 45.4177L391.759 43.7967C387.731 42.6997 384.539 41.0868 382.181 38.9582C379.839 36.8296 378.668 34.0133 378.668 30.5093C378.668 27.6111 379.454 25.0813 381.026 22.92C382.598 20.7586 384.727 19.0803 387.412 17.885C390.097 16.6733 393.127 16.0675 396.5 16.0675C399.905 16.0675 402.91 16.6652 405.513 17.8605C408.133 19.0557 410.196 20.7013 411.703 22.7972C413.209 24.8767 413.995 27.2673 414.061 29.969H406.742ZM467.511 41.9055C467.511 47.2762 466.529 51.8936 464.564 55.7579C462.599 59.6057 459.906 62.5694 456.483 64.6489C453.078 66.712 449.205 67.7436 444.866 67.7436C440.511 67.7436 436.622 66.712 433.2 64.6489C429.794 62.5694 427.109 59.5975 425.144 55.7333C423.179 51.8691 422.196 47.2598 422.196 41.9055C422.196 36.5349 423.179 31.9256 425.144 28.0778C427.109 24.2135 429.794 21.2499 433.2 19.1867C436.622 17.1073 440.511 16.0675 444.866 16.0675C449.205 16.0675 453.078 17.1073 456.483 19.1867C459.906 21.2499 462.599 24.2135 464.564 28.0778C466.529 31.9256 467.511 36.5349 467.511 41.9055ZM459.996 41.9055C459.996 37.8121 459.332 34.3653 458.006 31.5654C456.696 28.7491 454.895 26.6205 452.603 25.1796C450.327 23.7223 447.748 22.9937 444.866 22.9937C441.968 22.9937 439.381 23.7223 437.105 25.1796C434.829 26.6205 433.028 28.7491 431.702 31.5654C430.392 34.3653 429.737 37.8121 429.737 41.9055C429.737 45.999 430.392 49.4539 431.702 52.2702C433.028 55.0701 434.829 57.1988 437.105 58.656C439.381 60.0969 441.968 60.8174 444.866 60.8174C447.748 60.8174 450.327 60.0969 452.603 58.656C454.895 57.1988 456.696 55.0701 458.006 52.2702C459.332 49.4539 459.996 45.999 459.996 41.9055ZM517.572 16.7552V67.0558H510.597L485.029 30.1654H484.563V67.0558H476.973V16.7552H483.998L509.59 53.6947H510.057V16.7552H517.572ZM546.947 16.7552H556.158L572.171 55.8561H572.761L588.774 16.7552H597.985V67.0558H590.764V30.6567H590.297L575.462 66.9822H569.469L554.635 30.6321H554.168V67.0558H546.947V16.7552ZM613.268 67.0558H605.212L623.313 16.7552H632.081L650.183 67.0558H642.127L627.906 25.8919H627.513L613.268 67.0558ZM614.618 47.358H640.751V53.7439H614.618V47.358ZM657.446 67.0558V16.7552H675.376C679.273 16.7552 682.507 17.4265 685.077 18.7692C687.665 20.1119 689.597 21.9703 690.874 24.3445C692.151 26.7024 692.79 29.4286 692.79 32.5233C692.79 35.6016 692.143 38.3115 690.849 40.6529C689.572 42.978 687.64 44.7873 685.053 46.0809C682.482 47.3744 679.248 48.0212 675.351 48.0212H661.769V41.488H674.664C677.12 41.488 679.117 41.136 680.656 40.4319C682.212 39.7278 683.35 38.7044 684.07 37.3618C684.791 36.0191 685.151 34.4063 685.151 32.5233C685.151 30.6239 684.783 28.9783 684.046 27.5866C683.325 26.1948 682.187 25.1305 680.632 24.3936C679.093 23.6404 677.071 23.2638 674.565 23.2638H665.036V67.0558H657.446ZM682.278 44.3616L694.705 67.0558H686.06L673.878 44.3616H682.278ZM743.802 33.1127H736.139C735.845 31.4754 735.296 30.0344 734.494 28.79C733.692 27.5456 732.709 26.4895 731.547 25.6217C730.384 24.7539 729.082 24.0989 727.641 23.6568C726.217 23.2147 724.702 22.9937 723.098 22.9937C720.199 22.9937 717.604 23.7223 715.312 25.1796C713.036 26.6369 711.235 28.7737 709.908 31.59C708.599 34.4063 707.944 37.8448 707.944 41.9055C707.944 45.999 708.599 49.4539 709.908 52.2702C711.235 55.0865 713.044 57.2151 715.336 58.656C717.629 60.0969 720.208 60.8174 723.073 60.8174C724.661 60.8174 726.168 60.6045 727.592 60.1788C729.033 59.7367 730.335 59.0899 731.497 58.2385C732.66 57.3871 733.642 56.3473 734.445 55.1193C735.263 53.8749 735.828 52.4503 736.139 50.8457L743.802 50.8702C743.393 53.3427 742.599 55.6187 741.42 57.6982C740.257 59.7613 738.759 61.546 736.925 63.0524C735.108 64.5425 733.028 65.6968 730.687 66.5155C728.345 67.3342 725.791 67.7436 723.024 67.7436C718.668 67.7436 714.788 66.712 711.382 64.6489C707.976 62.5694 705.291 59.5975 703.326 55.7333C701.378 51.8691 700.403 47.2598 700.403 41.9055C700.403 36.5349 701.386 31.9256 703.351 28.0778C705.316 24.2135 708.001 21.2499 711.407 19.1867C714.812 17.1073 718.685 16.0675 723.024 16.0675C725.693 16.0675 728.182 16.4523 730.49 17.2219C732.816 17.9751 734.903 19.0885 736.753 20.5621C738.604 22.0194 740.135 23.8042 741.346 25.9164C742.558 28.0123 743.377 30.4111 743.802 33.1127ZM796.578 41.9055C796.578 47.2762 795.595 51.8936 793.63 55.7579C791.665 59.6057 788.972 62.5694 785.55 64.6489C782.144 66.712 778.272 67.7436 773.932 67.7436C769.577 67.7436 765.688 66.712 762.266 64.6489C758.86 62.5694 756.175 59.5975 754.21 55.7333C752.245 51.8691 751.263 47.2598 751.263 41.9055C751.263 36.5349 752.245 31.9256 754.21 28.0778C756.175 24.2135 758.86 21.2499 762.266 19.1867C765.688 17.1073 769.577 16.0675 773.932 16.0675C778.272 16.0675 782.144 17.1073 785.55 19.1867C788.972 21.2499 791.665 24.2135 793.63 28.0778C795.595 31.9256 796.578 36.5349 796.578 41.9055ZM789.062 41.9055C789.062 37.8121 788.399 34.3653 787.073 31.5654C785.763 28.7491 783.961 26.6205 781.669 25.1796C779.393 23.7223 776.814 22.9937 773.932 22.9937C771.034 22.9937 768.447 23.7223 766.171 25.1796C763.895 26.6205 762.094 28.7491 760.768 31.5654C759.458 34.3653 758.803 37.8121 758.803 41.9055C758.803 45.999 759.458 49.4539 760.768 52.2702C762.094 55.0701 763.895 57.1988 766.171 58.656C768.447 60.0969 771.034 60.8174 773.932 60.8174C776.814 60.8174 779.393 60.0969 781.669 58.656C783.961 57.1988 785.763 55.0701 787.073 52.2702C788.399 49.4539 789.062 45.999 789.062 41.9055ZM833.474 29.969C833.212 27.6439 832.131 25.8427 830.232 24.5656C828.333 23.272 825.942 22.6253 823.06 22.6253C820.997 22.6253 819.212 22.9527 817.706 23.6077C816.2 24.2463 815.029 25.1305 814.194 26.2603C813.375 27.3737 812.966 28.6427 812.966 30.0672C812.966 31.2625 813.244 32.294 813.801 33.1619C814.374 34.0297 815.119 34.7583 816.036 35.3478C816.969 35.9209 817.968 36.4039 819.032 36.7969C820.097 37.1735 821.12 37.4846 822.102 37.7302L827.015 39.0073C828.619 39.4003 830.265 39.9325 831.951 40.6038C833.638 41.2751 835.202 42.1593 836.642 43.2564C838.083 44.3534 839.246 45.7125 840.13 47.3335C841.031 48.9545 841.481 50.8948 841.481 53.1544C841.481 56.0035 840.744 58.5332 839.27 60.7437C837.813 62.9542 835.693 64.698 832.909 65.9752C830.142 67.2523 826.794 67.8909 822.864 67.8909C819.098 67.8909 815.839 67.2933 813.089 66.098C810.338 64.9027 808.185 63.208 806.629 61.0139C805.074 58.8034 804.214 56.1836 804.05 53.1544H811.664C811.811 54.9719 812.401 56.4865 813.432 57.6982C814.48 58.8935 815.815 59.7858 817.436 60.3753C819.073 60.9484 820.866 61.2349 822.815 61.2349C824.96 61.2349 826.867 60.8993 828.537 60.2279C830.224 59.5402 831.55 58.5905 832.516 57.3789C833.482 56.1508 833.965 54.7181 833.965 53.0807C833.965 51.5907 833.54 50.3708 832.688 49.4212C831.853 48.4715 830.715 47.6855 829.274 47.0633C827.85 46.4411 826.237 45.8926 824.436 45.4177L818.492 43.7967C814.464 42.6997 811.271 41.0868 808.913 38.9582C806.572 36.8296 805.401 34.0133 805.401 30.5093C805.401 27.6111 806.187 25.0813 807.759 22.92C809.331 20.7586 811.459 19.0803 814.145 17.885C816.83 16.6733 819.859 16.0675 823.232 16.0675C826.638 16.0675 829.643 16.6652 832.246 17.8605C834.866 19.0557 836.929 20.7013 838.435 22.7972C839.942 24.8767 840.728 27.2673 840.793 29.969H833.474Z" fill="#FA7835"/>
<path d="M192.632 121V91.0107H210.613V94.2322H196.263V104.365H209.266V107.587H196.263V121H192.632ZM216.833 121V91.0107H226.966C229.309 91.0107 231.232 91.4109 232.736 92.2114C234.239 93.0021 235.352 94.0906 236.074 95.4769C236.797 96.8631 237.158 98.4397 237.158 100.207C237.158 101.974 236.797 103.54 236.074 104.907C235.352 106.274 234.244 107.348 232.75 108.129C231.257 108.9 229.348 109.285 227.025 109.285H218.825V106.005H226.908C228.509 106.005 229.797 105.771 230.773 105.302C231.759 104.834 232.472 104.17 232.911 103.311C233.36 102.442 233.585 101.407 233.585 100.207C233.585 99.0059 233.36 97.9564 232.911 97.0583C232.462 96.1602 231.745 95.4671 230.759 94.979C229.773 94.4811 228.47 94.2322 226.849 94.2322H220.465V121H216.833ZM230.949 107.528L238.329 121H234.112L226.849 107.528H230.949ZM268.513 106.005C268.513 109.168 267.942 111.902 266.799 114.206C265.657 116.509 264.09 118.286 262.099 119.536C260.108 120.785 257.833 121.41 255.275 121.41C252.718 121.41 250.443 120.785 248.452 119.536C246.46 118.286 244.893 116.509 243.751 114.206C242.609 111.902 242.038 109.168 242.038 106.005C242.038 102.842 242.609 100.109 243.751 97.8051C244.893 95.5013 246.46 93.7245 248.452 92.475C250.443 91.2254 252.718 90.6007 255.275 90.6007C257.833 90.6007 260.108 91.2254 262.099 92.475C264.09 93.7245 265.657 95.5013 266.799 97.8051C267.942 100.109 268.513 102.842 268.513 106.005ZM264.998 106.005C264.998 103.409 264.564 101.217 263.695 99.4305C262.836 97.6441 261.669 96.292 260.195 95.3744C258.731 94.4567 257.091 93.9979 255.275 93.9979C253.459 93.9979 251.815 94.4567 250.34 95.3744C248.876 96.292 247.71 97.6441 246.841 99.4305C245.982 101.217 245.552 103.409 245.552 106.005C245.552 108.602 245.982 110.794 246.841 112.58C247.71 114.367 248.876 115.719 250.34 116.636C251.815 117.554 253.459 118.013 255.275 118.013C257.091 118.013 258.731 117.554 260.195 116.636C261.669 115.719 262.836 114.367 263.695 112.58C264.564 110.794 264.998 108.602 264.998 106.005ZM298.4 91.0107V121H294.885L278.543 97.4537H278.25V121H274.619V91.0107H278.133L294.534 114.616H294.827V91.0107H298.4ZM304.026 94.2322V91.0107H326.518V94.2322H317.088V121H313.456V94.2322H304.026ZM341.48 104.395V107.616H328.36V104.395H341.48ZM348.029 121V91.0107H366.128V94.2322H351.661V104.365H365.191V107.587H351.661V117.778H366.362V121H348.029ZM396.454 91.0107V121H392.94L376.598 97.4537H376.305V121H372.674V91.0107H376.188L392.588 114.616H392.881V91.0107H396.454ZM412.975 121H403.721V91.0107H413.385C416.295 91.0107 418.784 91.611 420.854 92.8118C422.923 94.0028 424.509 95.716 425.613 97.9516C426.716 100.177 427.267 102.842 427.267 105.947C427.267 109.071 426.711 111.76 425.598 114.015C424.485 116.26 422.865 117.988 420.736 119.199C418.608 120.4 416.021 121 412.975 121ZM407.352 117.778H412.741C415.221 117.778 417.276 117.3 418.906 116.343C420.536 115.387 421.752 114.025 422.552 112.258C423.353 110.491 423.753 108.387 423.753 105.947C423.753 103.526 423.358 101.442 422.567 99.6941C421.776 97.9369 420.595 96.5897 419.023 95.6526C417.451 94.7056 415.494 94.2322 413.151 94.2322H407.352V117.778ZM454.211 121H444.956V91.0107H454.621C457.53 91.0107 460.019 91.611 462.089 92.8118C464.158 94.0028 465.745 95.716 466.848 97.9516C467.951 100.177 468.503 102.842 468.503 105.947C468.503 109.071 467.946 111.76 466.833 114.015C465.72 116.26 464.1 117.988 461.972 119.199C459.844 120.4 457.257 121 454.211 121ZM448.588 117.778H453.977C456.456 117.778 458.511 117.3 460.141 116.343C461.772 115.387 462.987 114.025 463.787 112.258C464.588 110.491 464.988 108.387 464.988 105.947C464.988 103.526 464.593 101.442 463.802 99.6941C463.011 97.9369 461.83 96.5897 460.258 95.6526C458.687 94.7056 456.729 94.2322 454.387 94.2322H448.588V117.778ZM474.594 121V91.0107H492.693V94.2322H478.226V104.365H491.756V107.587H478.226V117.778H492.928V121H474.594ZM500.469 91.0107L509.372 116.256H509.723L518.626 91.0107H522.434L511.422 121H507.673L496.662 91.0107H500.469ZM527.105 121V91.0107H545.204V94.2322H530.736V104.365H544.267V107.587H530.736V117.778H545.438V121H527.105ZM551.749 121V91.0107H555.381V117.778H569.321V121H551.749ZM599.08 106.005C599.08 109.168 598.509 111.902 597.367 114.206C596.224 116.509 594.658 118.286 592.666 119.536C590.675 120.785 588.4 121.41 585.842 121.41C583.285 121.41 581.01 120.785 579.019 119.536C577.027 118.286 575.46 116.509 574.318 114.206C573.176 111.902 572.605 109.168 572.605 106.005C572.605 102.842 573.176 100.109 574.318 97.8051C575.46 95.5013 577.027 93.7245 579.019 92.475C581.01 91.2254 583.285 90.6007 585.842 90.6007C588.4 90.6007 590.675 91.2254 592.666 92.475C594.658 93.7245 596.224 95.5013 597.367 97.8051C598.509 100.109 599.08 102.842 599.08 106.005ZM595.566 106.005C595.566 103.409 595.131 101.217 594.262 99.4305C593.403 97.6441 592.237 96.292 590.763 95.3744C589.298 94.4567 587.658 93.9979 585.842 93.9979C584.027 93.9979 582.382 94.4567 580.908 95.3744C579.443 96.292 578.277 97.6441 577.408 99.4305C576.549 101.217 576.119 103.409 576.119 106.005C576.119 108.602 576.549 110.794 577.408 112.58C578.277 114.367 579.443 115.719 580.908 116.636C582.382 117.554 584.027 118.013 585.842 118.013C587.658 118.013 589.298 117.554 590.763 116.636C592.237 115.719 593.403 114.367 594.262 112.58C595.131 110.794 595.566 108.602 595.566 106.005ZM605.186 121V91.0107H615.319C617.672 91.0107 619.595 91.4353 621.089 92.2846C622.592 93.1242 623.705 94.2615 624.427 95.6965C625.15 97.1315 625.511 98.7325 625.511 100.499C625.511 102.266 625.15 103.872 624.427 105.317C623.715 106.762 622.612 107.914 621.118 108.773C619.624 109.622 617.711 110.047 615.378 110.047H608.115V106.825H615.261C616.871 106.825 618.165 106.547 619.141 105.991C620.117 105.434 620.825 104.683 621.264 103.736C621.713 102.779 621.938 101.7 621.938 100.499C621.938 99.2987 621.713 98.2249 621.264 97.278C620.825 96.331 620.112 95.5891 619.126 95.0522C618.141 94.5055 616.832 94.2322 615.202 94.2322H608.818V121H605.186ZM631.361 121V91.0107H649.46V94.2322H634.992V104.365H648.523V107.587H634.992V117.778H649.694V121H631.361ZM656.005 121V91.0107H666.139C668.482 91.0107 670.405 91.4109 671.908 92.2114C673.411 93.0021 674.524 94.0906 675.247 95.4769C675.969 96.8631 676.33 98.4397 676.33 100.207C676.33 101.974 675.969 103.54 675.247 104.907C674.524 106.274 673.416 107.348 671.923 108.129C670.429 108.9 668.521 109.285 666.197 109.285H657.997V106.005H666.08C667.681 106.005 668.97 105.771 669.946 105.302C670.932 104.834 671.644 104.17 672.084 103.311C672.533 102.442 672.757 101.407 672.757 100.207C672.757 99.0059 672.533 97.9564 672.084 97.0583C671.635 96.1602 670.917 95.4671 669.931 94.979C668.945 94.4811 667.642 94.2322 666.021 94.2322H659.637V121H656.005ZM670.122 107.528L677.502 121H673.284L666.021 107.528H670.122Z" fill="#913C28"/>
</svg>
